<?xml version="1.0" encoding="utf-8"?>
<!-- Designed by Vexels.com - 2016 All Rights Reserved - https://vexels.com/terms-and-conditions/  -->

<svg version="1.1" id="Capa_1" xmlns="http://www.w3.org/2000/svg" xmlns:xlink="http://www.w3.org/1999/xlink" x="0px" y="0px"
	 width="1200px" height="1200px" viewBox="0 0 1200 1200" enable-background="new 0 0 1200 1200" xml:space="preserve">
<g id="VEXELS">
</g>
<g>
	<g id="BACKGROUND">
		<g>
			<circle fill="#F16D24" cx="600.001" cy="600" r="550"/>
			<path fill="#FFFFFF" d="M858.773,745.219H627.375c0,0-10.523,1.387-11.577-8.363V472.508c0,0-0.377-6.296,5.968-9.055
				c0,0,158.679-58.054,202.068,120.979c0,0,49.646-14.872,83.725,14.908l6.581,6.584c10.239,11.577,18.371,28.228,22.264,51.912
				C936.404,657.837,938.482,736.856,858.773,745.219z"/>
			<path opacity="0.2" enable-background="new    " d="M914.14,605.925c10.239,11.577,18.371,28.228,22.264,51.912
				c0,0,2.068,79.019-77.631,87.382H627.375c0,0-10.523,1.387-11.577-8.363V472.508l-8.537,5.767
				c0.038,0.046,0.12,0.118,0.159,0.208l3.498,176.596c0,0,0.323,14.983-0.406,24.087l-3.498,58.42c0,0-2.88,5.16-7.022,6.537
				c-3.088,1.015-6.907-0.038-10.766-6.943l-2.846-62.188c0,0-1.054-18.893-0.287-25.521l3.534-159.325l-11.174,7.552l3.737,157.388
				c0,0,0.403,10.476-0.287,19.907l-3.899,64.3c0,0-7.313,14.022-15.396-0.367l-4.182-68.484c0,0,0.406-12.602,0.406-18.206
				c0-4.552,1.831-105.381,2.517-142.999l-14.505,9.792c0.816,0.816,1.667,1.829,2.518,3.17l3.819,134.27c0,0,1.421,11.171,0,16.409
				l-3.819,66.426c0,0-6.619,12.592-15.357-0.367l-3.573-67.431c0,0-0.241-11.181,0.411-15.404l3.454-128.573l-13.002,8.738
				l3.575,118.83c0,0,1.015,8.002,0,17.791l-4.179,66.788c0,0-7.359,12.554-14.339-0.729l-3.454-67.107
				c0,0-1.059-14.307-0.411-17.796l3.295-107.292l-12.596,8.489l3.734,103.307c0,0,0.688,11.538,0,14.713l-4.873,68.16
				c0,0-6.298,8.369-12.632-1.41l-4.511-67.117c0,0-1.421-10.52-0.367-13.606c0.613-1.87,2.113-52.526,3.206-93.602l-11.944,8.045
				l2.766,85.185c0,0,1.421,9.103,0,14.346l-4.513,67.068c0,0-5.972,9.104-11.823-0.647l-4.593-67.15c0,0-1.053-10.81,0-13.616
				l2.237-74.456l-11.376,7.673l2.52,65.044c0,0,0.647,9.465,0.321,15.031l-5.189,67.455c0,0-5.646,11.539-11.212-0.734
				l-4.952-68.16c0,0-0.326-10.113,0.364-13.611l1.991-54.116l-11.382,7.683l2.767,53.058c0,0,0.326,6.296,0,8.741l-5.65,67.798
				c0,0-5.194,9.104-10.072-1.015l-5.281-67.798c0,0,0-6.35,0.367-7.727l2.191-42.495l-12.309,8.33l4.022,36.363
				c0,0,0.523,5.441-0.249,9.915l-7.352,65.402c0,0-2.191,9.548-6.946,0l-6.136-65.73c0,0-0.732-6.455,0.203-9.22l2.435-27.304
				l-11.251,7.601l1.706,16.447c0,0,0.449,5.609-0.246,10.161l-7.025,66.537c0,0-2.034,9.756-6.581,0l-5.893-66.904
				c0,0-0.649-6.62,0.285-9.427l0.406-5.112l-8.164,5.527c0.085,1.865,0.124,5.402-0.287,8.446l-6.581,64.107c0,0-1.829,9.46-6.01,0
				l-5.156-60.406l-9.711,6.571l-5.279,44.325c0,0-1.911,8.05-6.137,0l-3.408-34.323l-15.803,10.639l-0.203,1.267
				c0,0-0.649,2.029-2.034,2.188l328.41,328.409l104.929,104.937c185.655-35.876,338.039-165.146,406.37-336.948L914.14,605.925z"/>
			<g>
				<path fill="#FFFFFF" d="M263.938,665.327l4.503-34.46c0,0,2.31-6.117,5.322-0.551l5.562,34.847c0,0,0.353,2.86-0.152,5.209
					l-5.565,34.103c0,0-1.604,5.021-5.166,0l-4.621-34.301C263.82,670.168,263.269,666.767,263.938,665.327z"/>
				<path fill="#FFFFFF" d="M287.822,664.128l5.208-55.304c0,0,2.781-9.756,6.345-0.904l6.576,55.909c0,0,0.394,4.58-0.273,8.339
					l-6.496,54.743c0,0-1.921,8.017-6.146,0l-5.442-55.014C287.587,671.898,286.959,666.433,287.822,664.128z"/>
				<path fill="#FFFFFF" d="M313.973,662.882l5.325-64.833c0,0,2.701-11.394,6.264-1.013l6.581,65.483c0,0,0.351,5.378-0.239,9.765
					l-6.581,64.137c0,0-1.838,9.436-6.029,0l-5.477-64.44C313.822,671.981,313.193,665.593,313.973,662.882z"/>
				<path fill="#FFFFFF" d="M339.97,663.443l5.601-67.307c0,0,2.933-11.826,6.813-1.061l7.006,68.01c0,0,0.472,5.604-0.231,10.142
					l-7.007,66.557c0,0-2.038,9.751-6.58,0l-5.912-66.929C339.659,672.85,339.028,666.241,339.97,663.443z"/>
				<path fill="#FFFFFF" d="M366.514,666.341l5.957-66.094c0,0,3.093-11.628,7.125-1.015l7.402,66.751c0,0,0.51,5.445-0.237,9.905
					l-7.358,65.388c0,0-2.191,9.553-6.927,0l-6.15-65.716C366.321,675.556,365.579,669.077,366.514,666.341z"/>
				<path fill="#FFFFFF" d="M393.098,663.791l5.601-108.024c0,0,4.895-8.763,9.395,0l5.642,108.024c0,0,0.312,6.262,0,8.727
					l-5.642,67.798c0,0-5.203,9.104-10.103-1.033l-5.284-67.779C392.711,671.502,392.711,665.163,393.098,663.791z"/>
				<path fill="#FFFFFF" d="M424.937,738.943L420,670.763c0,0-0.351-10.104,0.35-13.602l4.583-124.841
					c0,0,4.189-12.916,11.195-1.406l4.899,126.252c0,0,0.662,9.451,0.312,15.012l-5.211,67.499
					C436.127,739.667,430.494,751.182,424.937,738.943z"/>
				<path fill="#FFFFFF" d="M452.224,739.667l-4.578-67.15c0,0-1.053-10.804,0-13.626l4.191-139.491c0,0,6.265-11.902,12.215-0.354
					l4.542,139.855c0,0,1.411,9.084,0,14.326l-4.542,67.088C464.047,740.315,458.097,749.418,452.224,739.667z"/>
				<path fill="#FFFFFF" d="M479.432,739.977l-4.537-67.083c0,0-1.416-10.548-0.357-13.646c1.058-3.15,4.547-145.804,4.547-145.804
					s7.714-11.555,12.601-0.333l5.25,145.412c0,0,0.669,11.528,0,14.703l-4.896,68.161
					C492.042,741.388,485.74,749.766,479.432,739.977z"/>
				<path fill="#FFFFFF" d="M506.372,738.943l-3.483-67.117c0,0-1.059-14.316-0.396-17.814l4.191-137.08
					c0,0,5.953-11.553,14.018-0.705l4.191,138.838c0,0,1.017,8.021,0,17.83l-4.191,66.778
					C520.701,739.667,513.344,752.202,506.372,738.943z"/>
				<path fill="#FFFFFF" d="M549.362,739.282c0,0-6.609,12.62-15.348-0.339l-3.561-67.44c0,0-0.278-11.195,0.389-15.404
					l3.522-132.161c0,0,6.306-15.07,14.992-1.739l3.834,134.268c0,0,1.416,11.186,0,16.429L549.362,739.282z"/>
				<path fill="#FFFFFF" d="M562.637,738.943l-4.191-68.523c0,0,0.391-12.582,0.391-18.182c0-5.595,2.781-157.001,2.781-157.001
					s7.322-13.582,16.757-1.708l3.836,161.526c0,0,0.396,10.494-0.312,19.926l-3.88,64.291
					C578.019,739.282,570.702,753.313,562.637,738.943z"/>
				<path fill="#FFFFFF" d="M607.034,737.576c0,0-8.733,15.747-17.813-0.372l-2.821-62.213c0,0-1.054-18.883-0.312-25.521
					l3.795-169.931c0,0,6.661-15.399,17.547-1.054l3.479,176.579c0,0,0.357,14.988-0.387,24.111L607.034,737.576z"/>
				<path opacity="0.1" fill="#FFFFFF" enable-background="new    " d="M615.808,736.856V472.527c0,0-0.396-6.295,5.948-9.073
					c0,0,158.684-58.032,202.068,120.975c0,0,95.805-28.662,112.562,73.409c0,0,2.076,79.019-77.604,87.392H627.356
					C627.356,745.229,616.862,746.596,615.808,736.856z"/>
				<path opacity="0.1" enable-background="new    " d="M858.773,745.219H627.375c0,0-10.523,1.387-11.577-8.363V472.508
					c0,0-0.377-6.296,5.968-9.055c0,0,158.679-58.054,202.068,120.979c0,0,49.646-14.872,83.725,14.908l6.581,6.584
					c10.239,11.577,18.371,28.228,22.264,51.912C936.404,657.837,938.482,736.856,858.773,745.219z"/>
			</g>
		</g>
	</g>
</g>
</svg>
